<?xml version="1.0" standalone="no"?>
<!DOCTYPE svg PUBLIC "-//W3C//DTD SVG 20010904//EN"
 "http://www.w3.org/TR/2001/REC-SVG-20010904/DTD/svg10.dtd">
<svg version="1.0" xmlns="http://www.w3.org/2000/svg"
 width="512.000000pt" height="512.000000pt" viewBox="0 0 512.000000 512.000000"
 preserveAspectRatio="xMidYMid meet">
<metadata>
Created by potrace 1.15, written by Peter Selinger 2001-2017
</metadata>
<g transform="translate(0.000000,512.000000) scale(0.100000,-0.100000)"
fill="#000000" stroke="none">
<path d="M320 5098 c-1 -13 93 -1054 207 -2314 l208 -2291 901 -247 c496 -135
912 -246 924 -246 13 0 428 111 924 246 l901 247 211 2313 210 2314 -2243 0
-2243 0 0 -22z m3580 -960 c-1 -51 -56 -617 -60 -621 -3 -2 -281 -107 -618
-233 l-612 -229 587 -3 c323 -1 590 -6 594 -10 10 -9 -147 -1753 -158 -1762
-4 -4 -247 -78 -539 -164 l-532 -158 -536 160 c-295 88 -539 162 -542 165 -5
5 -74 719 -74 770 l0 27 300 0 c165 0 300 -2 300 -5 0 -12 50 -308 52 -310 7
-7 483 -155 496 -155 15 0 493 148 500 155 2 2 16 144 31 317 l27 313 -871 5
-870 5 -27 290 c-14 160 -27 304 -27 320 l-1 30 610 235 610 235 -630 3 c-346
1 -630 3 -631 5 0 1 -15 145 -33 320 l-32 317 1343 0 1343 0 0 -22z"/>
</g>
</svg>
