<?xml version="1.0" standalone="no"?>
<!DOCTYPE svg PUBLIC "-//W3C//DTD SVG 20010904//EN"
 "http://www.w3.org/TR/2001/REC-SVG-20010904/DTD/svg10.dtd">
<svg version="1.0" xmlns="http://www.w3.org/2000/svg"
 width="2000.000000pt" height="2000.000000pt" viewBox="0 0 2000.000000 2000.000000"
 preserveAspectRatio="xMidYMid meet">
<metadata>
Created by potrace 1.15, written by Peter Selinger 2001-2017
</metadata>
<g transform="translate(0.000000,2000.000000) scale(0.100000,-0.100000)"
fill="#000000" stroke="none">
<path d="M1170 19982 c0 -10 56 -647 125 -1417 68 -770 226 -2538 350 -3930
124 -1391 309 -3461 410 -4600 455 -5108 638 -7161 674 -7563 21 -239 43 -438
47 -442 12 -11 7159 -2030 7185 -2030 11 0 206 52 432 116 227 63 827 232
1335 375 507 142 1337 376 1845 518 507 143 1354 381 1882 529 528 149 1134
319 1347 379 l387 108 6 40 c3 22 82 902 175 1955 163 1832 257 2888 765 8585
124 1392 318 3565 430 4830 113 1265 210 2347 215 2405 6 58 10 117 10 133 l0
27 -8810 0 c-8439 0 -8810 -1 -8810 -18z m14340 -3679 c0 -107 -49 -684 -95
-1128 -49 -471 -95 -965 -95 -1016 0 -18 -117 -19 -4220 -19 -2813 0 -4220 -3
-4220 -10 0 -6 43 -505 95 -1110 52 -605 95 -1109 95 -1120 0 -20 5 -20 4025
-20 3213 0 4025 -3 4025 -12 0 -7 -18 -150 -40 -318 -30 -228 -103 -1018 -285
-3115 -135 -1545 -257 -2934 -271 -3086 l-27 -275 -2226 -614 c-1224 -337
-2240 -619 -2257 -627 -31 -14 -128 12 -2305 613 -1251 344 -2276 628 -2278
631 -3 2 -64 761 -137 1686 -73 925 -134 1708 -137 1740 l-5 57 1099 0 c1040
0 1099 -1 1099 -17 0 -63 154 -1739 160 -1743 5 -3 557 -153 1228 -334 l1219
-329 1228 332 c676 182 1230 332 1231 334 3 4 273 2831 270 2834 -1 1 -1723 6
-3827 10 l-3824 8 -272 3025 c-149 1664 -278 3133 -287 3265 -9 132 -19 273
-22 313 l-6 72 5531 0 5531 0 0 -27z"/>
</g>
</svg>
