<?xml version="1.0" standalone="no"?>
<!DOCTYPE svg PUBLIC "-//W3C//DTD SVG 20010904//EN"
 "http://www.w3.org/TR/2001/REC-SVG-20010904/DTD/svg10.dtd">
<svg version="1.0" xmlns="http://www.w3.org/2000/svg"
 width="400.000000pt" height="400.000000pt" viewBox="0 0 400.000000 400.000000"
 preserveAspectRatio="xMidYMid meet">
<metadata>
Created by potrace 1.15, written by Peter Selinger 2001-2017
</metadata>
<g transform="translate(0.000000,400.000000) scale(0.100000,-0.100000)"
fill="#000000" stroke="none">
<path d="M2952 2180 c-345 -47 -533 -342 -431 -675 47 -154 180 -277 405 -375
330 -142 384 -184 384 -295 0 -122 -106 -192 -279 -183 -134 6 -229 62 -322
187 l-25 34 -152 -87 -152 -88 21 -38 c58 -103 160 -198 279 -259 176 -91 400
-113 606 -61 299 77 454 328 389 633 -20 96 -67 177 -145 250 -80 76 -178 134
-367 216 -251 111 -293 146 -293 251 0 106 65 165 179 164 97 -1 160 -39 222
-134 l16 -24 147 93 146 94 -16 26 c-117 184 -249 259 -479 275 -38 2 -99 0
-133 -4z"/>
<path d="M1798 1468 l-3 -693 -23 -41 c-31 -52 -69 -75 -141 -81 -102 -9 -171
30 -238 135 -19 29 -37 51 -41 49 -4 -2 -73 -43 -154 -92 -167 -99 -158 -81
-87 -186 108 -161 281 -243 509 -243 278 0 450 112 529 343 l26 76 3 713 3
712 -190 0 -190 0 -3 -692z"/>
</g>
</svg>
