<?xml version="1.0" standalone="no"?>
<!DOCTYPE svg PUBLIC "-//W3C//DTD SVG 20010904//EN"
 "http://www.w3.org/TR/2001/REC-SVG-20010904/DTD/svg10.dtd">
<svg version="1.0" xmlns="http://www.w3.org/2000/svg"
 width="200.000000pt" height="200.000000pt" viewBox="0 0 200.000000 200.000000"
 preserveAspectRatio="xMidYMid meet">
<metadata>
Created by potrace 1.15, written by Peter Selinger 2001-2017
</metadata>
<g transform="translate(0.000000,200.000000) scale(0.100000,-0.100000)"
fill="#000000" stroke="none">
<path d="M1127 1788 c-67 -97 -86 -186 -62 -279 22 -87 51 -142 105 -198 97
-101 206 -145 340 -139 131 7 207 48 281 155 42 60 36 72 -14 26 -65 -60 -119
-77 -228 -71 -77 5 -100 11 -162 41 -186 92 -287 291 -232 456 9 29 15 54 12
57 -2 2 -20 -19 -40 -48z"/>
<path d="M742 1671 c-80 -119 -104 -183 -110 -296 -13 -273 167 -529 454 -642
64 -25 80 -27 219 -28 122 0 160 4 205 19 120 41 196 93 271 183 41 50 95 150
85 160 -3 3 -28 -20 -57 -51 -97 -107 -270 -167 -433 -151 -164 16 -305 85
-432 210 -63 63 -90 98 -123 165 -42 86 -71 193 -71 265 0 53 25 155 50 207
23 48 23 48 11 48 -5 0 -36 -40 -69 -89z"/>
<path d="M290 1508 c-87 -112 -115 -166 -141 -266 -44 -174 -11 -391 87 -571
102 -188 251 -328 449 -422 151 -72 202 -83 390 -82 130 0 174 4 236 21 206
56 385 197 487 382 34 62 28 91 -8 40 -56 -79 -222 -174 -357 -204 -102 -23
-284 -21 -396 4 -104 23 -252 90 -346 157 -325 233 -472 640 -344 961 14 35
23 66 20 68 -3 3 -37 -37 -77 -88z"/>
</g>
</svg>
