<?xml version="1.0" standalone="no"?>
<!DOCTYPE svg PUBLIC "-//W3C//DTD SVG 20010904//EN"
 "http://www.w3.org/TR/2001/REC-SVG-20010904/DTD/svg10.dtd">
<svg version="1.0" xmlns="http://www.w3.org/2000/svg"
 width="1200.000000pt" height="1084.000000pt" viewBox="0 0 1200.000000 1084.000000"
 preserveAspectRatio="xMidYMid meet">
<metadata>
Created by potrace 1.15, written by Peter Selinger 2001-2017
</metadata>
<g transform="translate(0.000000,1084.000000) scale(0.100000,-0.100000)"
fill="#000000" stroke="none">
<path d="M5810 10834 c-1076 -97 -2039 -788 -2576 -1851 -184 -364 -353 -876
-438 -1333 -252 -1340 8 -2762 744 -4076 l69 -123 -33 -73 c-62 -136 -71 -177
-71 -348 1 -149 2 -159 33 -250 94 -272 304 -468 581 -542 98 -26 285 -28 383
-4 390 93 661 457 634 851 -20 299 -199 563 -466 689 -120 57 -178 69 -340 72
l-144 3 -34 58 c-63 105 -210 396 -273 538 -243 550 -379 1085 -441 1730 -16
168 -16 758 1 935 75 831 324 1508 774 2110 214 285 421 454 772 626 255 125
542 215 826 260 154 25 466 25 596 1 367 -69 673 -236 969 -532 481 -481 833
-1259 929 -2056 6 -45 8 -47 43 -54 59 -10 362 -99 540 -158 l162 -54 0 36 c0
103 -48 454 -91 671 -93 467 -266 945 -477 1315 -74 130 -202 322 -298 445
-109 141 -383 419 -520 527 -384 304 -823 499 -1274 568 -101 16 -479 28 -580
19z"/>
<path d="M5134 7460 c-305 -80 -548 -335 -603 -634 -14 -77 -14 -245 0 -322
56 -304 321 -575 628 -640 85 -18 267 -18 352 0 214 46 420 198 534 395 l46
78 106 7 c512 31 1180 -55 1743 -224 752 -226 1506 -646 2057 -1148 587 -535
1032 -1311 1128 -1968 79 -547 -50 -1025 -407 -1504 -86 -115 -283 -314 -393
-397 -388 -292 -839 -433 -1385 -433 -418 0 -871 89 -1278 251 -67 27 -127 49
-133 49 -5 0 -63 -44 -127 -99 -127 -107 -370 -299 -469 -371 -34 -25 -63 -49
-63 -55 0 -11 14 -17 215 -102 420 -177 855 -289 1284 -333 157 -15 632 -13
791 5 380 43 730 141 1082 304 321 148 631 364 883 616 217 216 358 409 475
649 111 229 179 461 216 741 25 190 23 549 -5 755 -53 397 -167 762 -355 1135
-212 419 -465 757 -870 1160 -454 452 -923 786 -1498 1064 -839 408 -1765 612
-2784 615 l-250 0 -33 54 c-107 173 -310 315 -510 358 -96 20 -289 17 -377 -6z"/>
<path d="M2040 5718 c-449 -339 -820 -724 -1076 -1119 -279 -430 -460 -908
-530 -1399 -24 -167 -29 -565 -10 -746 52 -490 219 -961 464 -1307 515 -730
1518 -1166 2607 -1134 333 10 627 53 1010 148 912 228 1682 613 2376 1189 162
135 536 510 673 675 280 337 516 691 708 1062 66 126 83 153 101 153 26 0 134
31 197 56 186 74 352 239 436 433 50 116 68 223 61 361 -7 135 -24 205 -78
317 -204 428 -738 591 -1153 351 -45 -26 -106 -76 -167 -137 -84 -85 -101
-109 -146 -201 -70 -143 -88 -224 -87 -380 1 -106 5 -139 28 -215 33 -109 84
-207 151 -288 l51 -61 -59 -111 c-194 -361 -411 -662 -695 -965 -381 -406
-791 -722 -1363 -1050 -531 -306 -1022 -491 -1524 -574 -247 -41 -357 -50
-625 -50 -270 0 -404 11 -616 50 -597 109 -1063 404 -1357 860 -212 328 -326
662 -358 1044 -10 123 -9 168 5 300 34 324 104 560 256 859 198 391 520 788
880 1086 52 43 96 84 98 90 2 7 -15 73 -37 146 -37 125 -104 382 -131 509 -17
78 -20 90 -28 90 -4 0 -32 -19 -62 -42z"/>
</g>
</svg>
