<?xml version="1.0" standalone="no"?>
<!DOCTYPE svg PUBLIC "-//W3C//DTD SVG 20010904//EN"
 "http://www.w3.org/TR/2001/REC-SVG-20010904/DTD/svg10.dtd">
<svg version="1.0" xmlns="http://www.w3.org/2000/svg"
 width="174.000000pt" height="160.000000pt" viewBox="0 0 174.000000 160.000000"
 preserveAspectRatio="xMidYMid meet">
<metadata>
Created by potrace 1.15, written by Peter Selinger 2001-2017
</metadata>
<g transform="translate(0.000000,160.000000) scale(0.100000,-0.100000)"
fill="#000000" stroke="none">
<path d="M626 1108 c9 -18 52 -99 95 -179 l79 -146 -43 -79 c-24 -43 -70 -127
-101 -186 l-58 -108 59 0 60 0 69 145 c38 79 71 144 74 145 3 0 39 -65 80
-145 l75 -145 62 0 61 0 -105 189 c-99 179 -104 191 -90 213 8 13 53 92 100
176 l86 152 -59 0 -60 0 -70 -141 -71 -140 -69 140 -70 141 -60 0 -61 0 17
-32z"/>
</g>
</svg>
