<?xml version="1.0" standalone="no"?>
<!DOCTYPE svg PUBLIC "-//W3C//DTD SVG 20010904//EN"
 "http://www.w3.org/TR/2001/REC-SVG-20010904/DTD/svg10.dtd">
<svg version="1.0" xmlns="http://www.w3.org/2000/svg"
 width="512.000000pt" height="512.000000pt" viewBox="0 0 512.000000 512.000000"
 preserveAspectRatio="xMidYMid meet">
<metadata>
Created by potrace 1.15, written by Peter Selinger 2001-2017
</metadata>
<g transform="translate(0.000000,512.000000) scale(0.100000,-0.100000)"
fill="#000000" stroke="none">
<path d="M199 4510 c-58 -10 -96 -30 -136 -72 -68 -71 -63 78 -63 -1880 0
-1694 1 -1775 19 -1813 22 -50 86 -108 137 -126 28 -10 97 -14 237 -14 l197 0
0 1478 c0 1230 2 1478 13 1475 7 -2 449 -320 981 -708 531 -388 971 -705 976
-705 5 0 445 317 976 705 532 388 971 707 976 708 4 2 8 -663 8 -1478 l0
-1482 208 4 c167 4 215 8 247 22 52 22 103 71 126 121 18 38 19 107 19 1815 0
1708 -1 1777 -19 1815 -23 50 -74 99 -124 120 -21 8 -79 18 -130 22 l-93 6
-85 -65 c-46 -35 -540 -396 -1096 -802 l-1013 -737 -1012 737 c-557 406 -1050
766 -1096 801 -82 62 -83 63 -145 62 -34 -1 -83 -5 -108 -9z"/>
</g>
</svg>
