<?xml version="1.0" standalone="no"?>
<!DOCTYPE svg PUBLIC "-//W3C//DTD SVG 20010904//EN"
 "http://www.w3.org/TR/2001/REC-SVG-20010904/DTD/svg10.dtd">
<svg version="1.0" xmlns="http://www.w3.org/2000/svg"
 width="512.000000pt" height="512.000000pt" viewBox="0 0 512.000000 512.000000"
 preserveAspectRatio="xMidYMid meet">
<metadata>
Created by potrace 1.15, written by Peter Selinger 2001-2017
</metadata>
<g transform="translate(0.000000,512.000000) scale(0.100000,-0.100000)"
fill="#000000" stroke="none">
<path d="M2240 5105 c-389 -48 -766 -188 -1091 -404 -504 -335 -871 -825
-1043 -1395 -41 -132 -81 -333 -96 -468 -13 -125 -13 -431 0 -556 63 -592 332
-1141 766 -1563 389 -377 846 -605 1399 -696 87 -14 167 -18 385 -18 300 0
381 9 618 66 868 211 1576 882 1836 1743 74 243 106 468 106 746 0 209 -10
324 -46 505 -181 920 -867 1676 -1768 1949 -132 41 -333 81 -468 96 -131 14
-469 11 -598 -5z m-500 -1111 c132 -59 204 -199 178 -344 -19 -104 -80 -182
-178 -229 -48 -23 -67 -26 -160 -26 -92 0 -112 3 -161 26 -117 55 -183 159
-183 289 1 155 90 265 249 307 73 19 184 9 255 -23z m1877 -842 c194 -61 339
-204 413 -409 56 -155 60 -216 60 -860 l0 -583 -310 0 -310 0 0 539 c0 320 -4
560 -10 591 -33 176 -134 263 -303 262 -123 0 -222 -66 -288 -192 l-24 -45 -3
-577 -3 -578 -309 0 -310 0 0 920 0 920 310 0 310 0 0 -122 1 -123 21 30 c12
17 50 58 85 92 99 97 242 157 393 166 79 4 213 -11 277 -31z m-1727 -932 l0
-920 -310 0 -310 0 0 920 0 920 310 0 310 0 0 -920z"/>
</g>
</svg>
