<?xml version="1.0" standalone="no"?>
<!DOCTYPE svg PUBLIC "-//W3C//DTD SVG 20010904//EN"
 "http://www.w3.org/TR/2001/REC-SVG-20010904/DTD/svg10.dtd">
<svg version="1.0" xmlns="http://www.w3.org/2000/svg"
 width="512.000000pt" height="512.000000pt" viewBox="0 0 512.000000 512.000000"
 preserveAspectRatio="xMidYMid meet">
<metadata>
Created by potrace 1.15, written by Peter Selinger 2001-2017
</metadata>
<g transform="translate(0.000000,512.000000) scale(0.100000,-0.100000)"
fill="#000000" stroke="none">
<path d="M1 4433 c1 -431 5 -668 10 -636 11 65 49 161 88 222 17 25 144 159
283 297 302 300 317 309 468 309 157 0 153 3 576 -419 320 -320 365 -368 393
-426 56 -116 50 -237 -16 -344 -14 -22 -126 -142 -249 -266 -176 -177 -224
-232 -224 -252 0 -14 16 -60 35 -103 115 -252 328 -531 649 -850 266 -265 484
-431 749 -570 68 -36 134 -65 147 -65 17 0 86 61 254 228 200 198 240 233 301
263 63 31 78 34 155 34 75 0 93 -4 155 -33 65 -31 98 -61 431 -395 406 -408
416 -421 422 -554 5 -85 -15 -153 -64 -228 -18 -27 -144 -160 -281 -296 -227
-224 -254 -248 -323 -281 -66 -31 -113 -47 -185 -62 -11 -2 287 -4 663 -5
l682 -1 0 1355 c0 745 -3 1355 -7 1355 -5 0 -86 -14 -181 -30 -96 -17 -182
-30 -192 -30 -14 0 -21 16 -35 78 -108 501 -337 923 -696 1281 -362 360 -820
601 -1318 691 -57 10 -105 20 -107 22 -2 2 9 93 24 201 l28 197 -1318 0 -1318
0 1 -687z m2777 -369 c575 -145 1045 -576 1236 -1136 31 -89 80 -280 73 -283
-5 -3 -383 -65 -393 -65 -6 0 -17 27 -23 61 -65 330 -298 665 -594 852 -138
88 -324 164 -464 188 -37 7 -72 15 -76 19 -4 4 5 96 20 204 l28 197 50 -6 c27
-4 92 -18 143 -31z"/>
<path d="M2791 5100 c1079 -206 1967 -1022 2263 -2080 19 -69 41 -154 49 -190
13 -58 15 63 16 1113 l1 1177 -1212 -1 c-1202 -1 -1212 -1 -1117 -19z"/>
<path d="M1 1728 l-1 -1728 1738 1 c1478 1 1724 3 1652 14 -323 51 -702 203
-1125 453 -660 390 -1257 964 -1689 1621 -286 435 -498 923 -561 1291 -11 63
-13 -207 -14 -1652z"/>
</g>
</svg>
